<svg xmlns="http://www.w3.org/2000/svg" viewBox="0 0 800 300" width="800" height="300">
  <rect width="800" height="300" fill="#FFFFFF"/>
  <g transform="translate(60, -30) scale(0.65)">
    <path d="M 300,180 C 240,100 160,100 120,140 C 70,180 70,240 120,280 C 160,320 240,320 300,240 C 360,160 440,160 480,200 C 510,230 510,270 480,300 C 440,330 380,310 320,250" fill="none" stroke="#111827" stroke-width="24" stroke-linecap="round" stroke-linejoin="round"/>
    <path d="M 310,230 C 350,170 410,140 460,100 L 480,85" fill="none" stroke="#FF5500" stroke-width="26" stroke-linecap="round"/>
    <polygon points="455,65 515,70 495,125" fill="#FF5500"/>
  </g>
  <text x="430" y="140" font-family="-apple-system, BlinkMacSystemFont, 'SF Pro Display', 'Helvetica Neue', Arial, sans-serif" font-size="48" font-weight="800" letter-spacing="2px" fill="#111827">EIGENIA B.V.</text>
  <text x="430" y="180" font-family="-apple-system, BlinkMacSystemFont, 'SF Pro Text', 'Helvetica Neue', Arial, sans-serif" font-size="20" font-weight="500" letter-spacing="1px" fill="#4B5563">Irreducible Truth in Complex Systems</text>
</svg>